<?xml version="1.0" encoding="UTF-8" standalone="no"?>
<svg
   xmlns:dc="http://purl.org/dc/elements/1.1/"
   xmlns:cc="http://creativecommons.org/ns#"
   xmlns:rdf="http://www.w3.org/1999/02/22-rdf-syntax-ns#"
   xmlns:svg="http://www.w3.org/2000/svg"
   xmlns="http://www.w3.org/2000/svg"
   xmlns:sodipodi="http://sodipodi.sourceforge.net/DTD/sodipodi-0.dtd"
   xmlns:inkscape="http://www.inkscape.org/namespaces/inkscape"
   version="1.0"
   width="1213.9497pt"
   height="313.10596pt"
   viewBox="0 0 1213.9497 313.10596"
   preserveAspectRatio="xMidYMid meet"
   id="svg59"
   sodipodi:docname="header.svg"
   inkscape:version="0.92.4 5da689c313, 2019-01-14"
   inkscape:export-filename="/home/abde/test.png"
   inkscape:export-xdpi="96"
   inkscape:export-ydpi="96">
  <defs
     id="defs63" />
  <sodipodi:namedview
     pagecolor="#ffffff"
     bordercolor="#666666"
     borderopacity="1"
     objecttolerance="10"
     gridtolerance="10"
     guidetolerance="10"
     inkscape:pageopacity="0"
     inkscape:pageshadow="2"
     inkscape:window-width="1600"
     inkscape:window-height="874"
     id="namedview61"
     showgrid="false"
     inkscape:zoom="0.35355339"
     inkscape:cx="215.69979"
     inkscape:cy="236.34555"
     inkscape:window-x="0"
     inkscape:window-y="0"
     inkscape:window-maximized="0"
     inkscape:current-layer="layer5"
     inkscape:pagecheckerboard="true">
    <inkscape:grid
       type="xygrid"
       id="grid5019"
       originx="-20.258949"
       originy="-1.3889482" />
  </sodipodi:namedview>
  <metadata
     id="metadata47">
Created by potrace 1.15, written by Peter Selinger 2001-2017
<rdf:RDF>
  <cc:Work
     rdf:about="">
    <dc:format>image/svg+xml</dc:format>
    <dc:type
       rdf:resource="http://purl.org/dc/dcmitype/StillImage" />
    <dc:title></dc:title>
  </cc:Work>
</rdf:RDF>
</metadata>
  <g
     inkscape:groupmode="layer"
     id="layer5"
     inkscape:label="sous_light"
     transform="translate(-20.258968,-19.505093)">
    <g
       id="g5262"
       transform="matrix(1.0473295,0,0,1.0805273,45.625256,-18.128322)">
      <path
         style="stroke-width:2.96320128"
         id="path5163"
         d="M 616.51778,208.47234 545.63802,82.536296 495.55991,171.84718 h 50.07811 v 0 c 0,20.23865 -16.41614,36.62516 -36.62518,36.62516 h -91.26659 l 15.61608,-25.60205 88.45154,-148.04154 h 47.47049 l 98.64495,173.64359 z"
         class="st1"
         inkscape:connector-curvature="0" />
      <path
         style="stroke-width:2.96320128"
         id="path5165"
         d="M 708.43628,208.47234 V 35.065804 H 892.68812 V 70.624223 H 753.29916 V 101.6193 h 81.72507 v 37.72155 h -81.51767 v 30.99508 h 138.73708 v 38.16604 H 708.43628 Z"
         class="st1"
         inkscape:connector-curvature="0" />
      <path
         style="stroke-width:2.96320128"
         id="path5167"
         d="M 1106.6905,208.47234 H 931.95054 v 0 c 0,-20.00162 16.20872,-36.21033 36.21031,-36.21033 H 1091.9338 V 140.61502 H 964.90133 c -21.95732,-1.15564 -32.95079,-8.534 -32.95079,-22.16472 V 55.452627 c 0,-12.741762 10.96384,-19.616388 32.92116,-20.623877 h 169.9989 V 71.898393 H 974.23541 v 32.091467 h 132.18839 c 17.6311,0 27.0837,6.07457 28.3875,18.19407 v 65.04225 c -1.2742,14.16411 -10.6675,21.24616 -28.1208,21.24616 z"
         class="st1"
         inkscape:connector-curvature="0" />
      <path
         style="stroke-width:2.96320128"
         id="path5169"
         d="m 664.64016,255.4687 h 16.7421 v 54.28585 h 42.58119 V 255.4687 h 17.06805 v 58.2269 c 0,6.72648 -3.52622,10.37121 -10.549,10.87496 h -55.88597 c -6.13384,0 -9.45261,-3.55585 -9.95637,-10.72678 z"
         class="st1"
         inkscape:connector-curvature="0" />
      <path
         style="stroke-width:2.96320128"
         id="path5171"
         d="m 789.03535,256.26876 v 53.30801 h 53.54504 v 15.02342 h -70.93904 v -68.33143 z"
         class="st1"
         inkscape:connector-curvature="0" />
      <path
         style="stroke-width:2.96320128"
         id="path5173"
         d="m 939.35855,295.91639 v 19.26081 c 0,5.83751 -2.37056,8.97851 -7.11168,9.39336 h -71.35389 v -72.36138 h 71.26499 c 4.44479,0 6.84498,3.25952 7.17093,9.77857 v 18.28294 c 0.38523,4.77077 -2.01497,7.31911 -7.20058,7.70434 4.50407,-0.2667 6.90428,2.40018 7.23023,7.94136 z m -60.89379,-17.0384 h 41.81077 c 1.65939,0 2.51873,-1.42234 2.51873,-4.23738 v -2.99282 c 0,-2.75579 -0.82971,-4.14849 -2.51873,-4.14849 h -41.81077 z m 0,29.72091 h 41.81077 c 1.65939,0 2.51873,-1.42234 2.51873,-4.23738 v -2.99282 c 0,-2.84469 -0.82971,-4.23739 -2.51873,-4.23739 h -41.81077 z"
         class="st1"
         inkscape:connector-curvature="0" />
    </g>
  </g>
  <g
     inkscape:groupmode="layer"
     id="layer6"
     inkscape:label="white"
     style="opacity:1"
     transform="translate(-20.258968,-19.505093)" />
  <g
     inkscape:groupmode="layer"
     id="layer4"
     inkscape:label="sous_hard"
     transform="translate(-20.258968,-19.505093)" />
  <g
     inkscape:groupmode="layer"
     id="layer3"
     inkscape:label="light grey"
     transform="translate(-20.258968,-19.505093)" />
  <g
     inkscape:groupmode="layer"
     id="layer1"
     inkscape:label="hard_grey"
     transform="translate(-20.258968,-19.505093)">
    <g
       style="fill:#000000;stroke:none"
       transform="matrix(0.1,0,0,-0.1,0.23033009,334.19099)"
       id="g4833" />
  </g>
  <g
     inkscape:groupmode="layer"
     id="layer2"
     inkscape:label="blue"
     transform="translate(-20.258968,-19.505093)">
    <g
       id="g5328">
      <path
         sodipodi:nodetypes="scccccccss"
         inkscape:connector-curvature="0"
         style="fill:#e3e3e3;fill-opacity:1;stroke-width:0.09999999"
         id="path53-5"
         d="m 268.57671,44.258609 c -0.70064,-0.110186 -42.15937,-13.16953 -43.9,-12.6 -5.3,0.8 -21.475,-1.425 -33.7625,-1.625 -16.5625,2.6625 -105.750001,13.074999 -109.050001,22.174999 -2.4,6.6 44.100001,33.050001 46.100001,30.15 1.2,-1.699999 -24.16824,132.585432 -19.46824,127.885432 8.3,-8.2 144.74814,28.25731 155.74814,22.15731 l 30.5576,-152.167741 27.775,-16.3125 c 1.89702,-1.114138 -47.35364,-18.61726 -54,-19.6625 z" />
      <rect
         ry="23.599688"
         y="78.5"
         x="80.599998"
         height="68.70282"
         width="95.065163"
         id="rect4974"
         style="opacity:1;fill:#ffffff;fill-opacity:1;stroke-width:0.75" />
      <path
         inkscape:connector-curvature="0"
         id="path5000"
         d="m 179.7819,149.44513 c 14.05375,34.73662 21.21321,50.11619 21.21321,50.11619 l 10.07627,-28.90298 10.19645,-19.46735 -2.2415,-8.10982 L 200.8,127.1 Z"
         style="opacity:1;fill:#ffffff;fill-opacity:1;stroke:none;stroke-width:0.75px;stroke-linecap:butt;stroke-linejoin:miter;stroke-opacity:1" />
      <path
         sodipodi:nodetypes="cccccccccc"
         inkscape:connector-curvature="0"
         id="path5007"
         d="m 224.10594,108.88691 12.60475,30.58757 23.13532,9.53379 33.34675,-2.91309 16.44933,-11.83345 2.63215,-15.78051 8.6809,-30.780518 -55.20564,8.077241 -36.69739,7.415167 z"
         style="opacity:1;fill:#ffffff;fill-opacity:1;stroke:#000000;stroke-width:0.82223356px;stroke-linecap:butt;stroke-linejoin:miter;stroke-opacity:1" />
      <path
         inkscape:connector-curvature="0"
         id="path5010"
         d="M 68.625001,58.375002 32.25,82.749999 78.375001,212.875 l 57.749999,63.75 54,33.375 -26.25,-50.625 -74.624999,-97.875 -10.875,-59.25 5.625,-26.625001 z"
         style="opacity:1;fill:none;stroke:#ffffff;stroke-width:0.75px;stroke-linecap:butt;stroke-linejoin:miter;stroke-opacity:1" />
      <path
         inkscape:connector-curvature="0"
         id="path5012"
         d="M 212.25,301.375 240,297.625 329.25,197.5 369.375,83.124999 330,61.375002 316.875,81.624999 333.75,116.125 271.125,235.75 l -37.5,27 z"
         style="opacity:1;fill:none;stroke:#ffffff;stroke-width:0.75px;stroke-linecap:butt;stroke-linejoin:miter;stroke-opacity:1" />
      <path
         inkscape:connector-curvature="0"
         id="path5014"
         d="m 73.875002,84.249999 14.249999,-9.374997 -15,-12.375 L 32.25,82.749999 56.625001,154.75 104.25,241.75 174,305.5 192.75,298.375 147,242.125 87.000001,157 Z"
         style="opacity:1;fill:#ffffff;fill-opacity:1;stroke:none;stroke-width:0.75px;stroke-linecap:butt;stroke-linejoin:miter;stroke-opacity:1" />
      <path
         inkscape:connector-curvature="0"
         id="path5017"
         d="m 223.5,276.25 -13.125,30.375 32.25,-12.375 78.75,-88.5 L 372,87.249999 333.75,60.625002 316.875,81.624999 332.25,104.125 l -26.625,81.75 z"
         style="opacity:1;fill:#ffffff;fill-opacity:1;stroke:none;stroke-width:0.75px;stroke-linecap:butt;stroke-linejoin:miter;stroke-opacity:1" />
      <path
         transform="scale(0.75000001)"
         sodipodi:nodetypes="ccccc"
         inkscape:connector-curvature="0"
         id="path4666-3"
         d="m 237.92782,118.85065 c 5.46666,1.46667 11.42757,16.99621 24.22757,19.12955 -7.32215,-15.30754 -15.6827,-23.22657 -30.61189,-41.828739 -20.26667,-4.533333 -25.49105,-9.055113 -31.22438,-12.12178 -38.09199,-27.820486 14.73588,28.012699 37.6087,34.820969 z"
         style="fill:#9f9f9f;fill-opacity:1;stroke:none;stroke-width:0.13333331" />
      <path
         sodipodi:nodetypes="cscsc"
         inkscape:connector-curvature="0"
         id="path4666-3-6"
         d="m 253.58573,66.422257 c -5.91729,-1.641231 -16.73347,4.838029 -26.65923,13.30725 -12.48873,10.656091 -22.39663,24.738863 -22.43043,24.744493 11.13863,-3.88843 17.61301,-12.1124 28.43631,-20.505735 8.64612,-6.704954 23.47372,-13.661911 20.65335,-17.546008 z"
         style="fill:#9f9f9f;fill-opacity:1;stroke:none;stroke-width:0.09999999" />
      <g
         id="g57"
         transform="matrix(0.1,0,0,-0.1,0,334)"
         style="fill:#000000;stroke:none">
        <g
           id="g4682"
           transform="translate(2.3033009,-1.9099022)"
           style="fill:#000000;stroke:none">
          <path
             style="fill:#9f9f9f;fill-opacity:1"
             sodipodi:nodetypes="cccccccccccssc"
             id="path4670"
             d="m 674,2522 c -56,-31 -109,-62 -119,-68 -17,-11 -18,-17 -6,-70 23,-106 90,-316 156,-489 43,-113 168,-365 240,-486 90,-150 197,-299 313,-437 118,-141 382,-390 322,-304 -8,11 3.8198,49.28078 -13.1802,73.28078 -144,207 -241.3483,351.60662 -350.3483,483.60662 C 1034.4715,1442.8874 883,1627 798,1870 c -75,217 -77,517 -4,658 11,22 12,32 3,41 -6,6 -13,11 -16,11 -4,0 -52,-26 -107,-58 z"
             inkscape:connector-curvature="0" />
          <path
             style="fill:#9f9f9f;fill-opacity:1"
             sodipodi:nodetypes="cccccccccccc"
             id="path4672"
             d="m 3222.354,2533.6517 c -3,-5 -7.9493,-29.9663 -0.9493,-48.9663 8,-19 12.0953,-66.9354 22.0953,-116.9354 30,-162 11.75,-364 -58.25,-541 -88,-225 -208.25,-405.5 -375.25,-595.5 -136,-155 -229.375,-276.875 -431.375,-548.875 -32,-43 0.375,-50.375 58.375,-1.375 458,393 782,896 989,1533 l 58,178 -28,21 c -42,30 -185,115 -206,122 -10,3 -24.646,4.6517 -27.646,-1.3483 z"
             inkscape:connector-curvature="0" />
        </g>
      </g>
      <path
         sodipodi:nodetypes="ccccccccccccccccccccccccccsccsccccsccscccs"
         id="path4817"
         d="m 1885,2943 c -87,-7 -295,-46 -380,-70 -152,-43 -388,-155 -367,-174 4,-4 101,-35 215,-68 115,-34 240,-77 278,-96 129.1089,-71.6211 220.3827,-170.3084 265.189,-313.0694 28,-89 -3.7046,-53.415 0.4985,-59.79 l -36.2031,27 -30.6563,-84.9687 c -10,-43 -25.5312,-99.6563 -35.5312,-127.6563 -15,-44 -31.914,-75.3598 -19.914,-75.3598 C 1846.6123,1960.9144 1911.6434,2023.202 1965,2092 l 43,58 24,-38 c 58.6259,-84.8264 133.3893,-166.9418 207.367,-225.0963 4,0 -28.367,47.0963 -38.367,76.0963 -10,28 -24,84 -31,122 -7,39 -10.8984,74.4688 -12.8984,78.4688 -3,5 3.3359,39.2499 -9.6641,27.2499 -23,-22 -46.9688,-45.9062 -46.9688,-26.9062 29.8517,158.8201 150.3666,288.6103 284.5313,357.1875 33,16 159,55 280,87 120,32 220,62 222,68 1,5 -23,26 -55,46 -228,147 -654,247 -947,221 z m -270.9305,-246.7647 c 2.8667,-0.8251 73.6944,-19.837 76.5288,-21.3196 65.5864,-34.3054 90.2838,-52.6463 102.0638,-63.2593 3.9589,-6.2495 67.4865,-51.1863 110.2929,-114.7127 31,-47 54.7811,-116.86 54.7811,-142.86 0,-20 4.2639,-59.0837 -44.7361,-11.0837 -32,30 -134,121 -228,202 -1.0293,9.7469 -134.7647,102.6795 -158.4867,142.5443 -29.3182,31.4331 62.5562,9.691 87.5562,8.691 z m 896.5555,-13.3603 c 0,-4 -2.4367,-10.2233 -12.4367,-17.2233 C 2464.1883,2644.6517 2145,2377 2098,2331 c -33,-31 -41.4375,-23.125 -41.4375,-11.125 0,35 20.5,128.0625 62.5,183.0625 24.9502,30.6144 111.0445,113.601 162.875,138.375 56.9719,24.0757 120.0452,46.5595 171.908,48.1678 35,0 56.7795,-3.6053 56.7795,-6.6053 z"
         inkscape:connector-curvature="0"
         style="fill:#cacaca;fill-opacity:1;stroke:none"
         transform="matrix(0.1,0,0,-0.1,0.23033009,334.19099)" />
      <path
         sodipodi:nodetypes="scccscccs"
         id="path4819"
         d="m 762.24777,2796.7241 c 4,-7 50.17378,-93.9767 68.17378,-116.9767 54,-68 138.58971,-94.6798 369.58975,-146.6798 C 1432.0113,2482.0676 1550,2457 1658,2400 c 39,-22 120.3926,-83.0781 120.3926,-81.0781 0,2 -32.9549,78.9993 -63.9549,98.9993 -53,35 -223.6292,94.6629 -529.6292,186.6629 -130,40 -271.57277,93.6854 -319.57277,134.6854 -37,33 -114.98796,78.4546 -102.98796,57.4546 z"
         inkscape:connector-curvature="0"
         style="fill:#cacaca;fill-opacity:1;stroke:none"
         transform="matrix(0.1,0,0,-0.1,0.23033009,334.19099)" />
      <path
         sodipodi:nodetypes="ccsscsccc"
         id="path4823"
         d="m 847.125,2536.25 c -45,-81 -57.5,-361.8125 -17.5,-542.8125 33,-147 66.9375,-205.9375 77.9375,-205.9375 5,0 34.25731,35.3318 34.25731,51.3318 0,15 -0.19481,66.6057 12.80519,104.6057 14,40 29.4375,108.6875 24.4375,114.6875 -5,6 -19.125,27.25 -34.125,71.25 -23,68 -26.125,132.0625 -31.125,259.0625 -5,118 -57.6875,163.8125 -66.6875,147.8125 z"
         inkscape:connector-curvature="0"
         style="fill:#cacaca;fill-opacity:1;stroke:none"
         transform="matrix(0.1,0,0,-0.1,0.23033009,334.19099)" />
      <path
         sodipodi:nodetypes="scccccccccs"
         id="path4825"
         d="m 3143.375,2487.0313 c -1,-3 -18.5882,-45.1214 -20.5882,-106.1214 -3,-119 -31.6517,-216.7868 -69.6517,-295.7868 l -46.8648,-78.8198 41.5615,-95.5616 c 13,-43 23,-160.2912 24,-179.2912 1,-34 41.012,28.3307 59.012,84.3307 11,33 36.625,116.4688 50.625,185.4688 22,107 29.6875,154.3125 26.6875,270.3125 -3,97 -10.4063,152.5 -22.4063,177.5 4.5938,26.0313 -41.375,40.9688 -42.375,37.9688 z"
         inkscape:connector-curvature="0"
         style="fill:#cacaca;fill-opacity:1;stroke:none"
         transform="matrix(0.1,0,0,-0.1,0.23033009,334.19099)" />
      <path
         sodipodi:nodetypes="sscccccs"
         id="path4827"
         d="m 953.59612,2061.3468 c 0,-27 67.08938,-388.8218 148.02248,-422.8633 l 121.943,-81.9324 20.584,104.8873 c 4,47 6.0226,97.3033 9.0226,106.3033 5,12 -19.9325,76.0331 -68.9325,100.0331 -35,18 -96.2807,40.4159 -125.2807,67.4159 -28,29 -105.35888,135.1561 -105.35888,126.1561 z"
         inkscape:connector-curvature="0"
         style="fill:#cacaca;fill-opacity:1;stroke:none"
         transform="matrix(0.1,0,0,-0.1,0.23033009,334.19099)" />
      <path
         sodipodi:nodetypes="sccccccs"
         id="path4829"
         d="m 2943.6875,1896.9375 c -28,-26 -76.3125,-51.5625 -112.3125,-67.5625 -50,-22 -87.5,-11.5 -82.5,-22.5 3,-8 0.5625,-132.6875 3.5625,-178.6875 l 29.4375,-92.375 81.4375,80.9375 c 73,88 176.5625,333.625 161.5625,348.625 -16.0625,31 -53.1875,-42.4375 -81.1875,-68.4375 z"
         inkscape:connector-curvature="0"
         style="fill:#cacaca;fill-opacity:1;stroke:none"
         transform="matrix(0.1,0,0,-0.1,0.23033009,334.19099)" />
      <path
         sodipodi:nodetypes="ccccscccccccccccsccscscsccccc"
         id="path4831"
         d="m 1708.7305,1819.2751 c -43,-49 -94.5849,-84.691 -179.5849,-91.691 l -47.7417,-6.6517 21.1126,5.7418 c 71,34 40.1352,75.1456 -61.8648,75.1456 -51,0 -111.3259,-14.5615 -131.3259,-9.5615 -21,5 -68.494,12.2807 -68.494,12.2807 126.246,-132.2683 239.4568,-187.7848 359.4715,-266.7747 149.4317,-109.8694 213.4844,-194.913 249.0676,-327.461 1,-5 12,-55.6516 23,-107.6516 30,-135.00005 65.1916,-401.6517 80.1916,-577.6517 6,-82 20.625,-173.625 24.625,-178.625 3,-4 33.5625,60.0625 39.5625,124.0625 21,205 43.25,449.5625 85.25,609.5625 25.2789,102.2138 46.6349,192.091 85,262 30,56 106,129 196,190 65,44 199.4494,98.7522 237.25,126.4375 63.0922,46.209 119.4467,95.4724 137.4467,128.4724 11,21 37.9908,19.2151 -8.0092,13.2151 -26,-4 -147.6875,-50.125 -191.6875,-50.125 -88,0 -93,-9 -24,-41 39,-18 39,-19 12,-19 -40,0 -103.5625,63.625 -150.5625,87.625 -22,11 -58.75,29.4375 -76.75,49.4375 -18,20 -126.875,73.375 -108.3125,2.9375 -20,-21 -187.75,-503.375 -190.375,-671 -28,-113 -33,-118 -45,-47 -14,89 -210.6517,762.8817 -220.6517,757.8817 -1,-1 -26.6178,-29.6066 -45.6178,-50.6066 z"
         inkscape:connector-curvature="0"
         style="fill:#cacaca;fill-opacity:1;stroke:none"
         transform="matrix(0.1,0,0,-0.1,0.23033009,334.19099)" />
      <path
         sodipodi:nodetypes="cccscccsc"
         id="path4821"
         d="m 3178.506,2735.8761 c -65,-70 -228.9107,-132.7305 -607.9107,-223.7305 -60,-14 -222.786,-82.247 -265.786,-110.247 -22,-15 -46.9606,-77.3869 -46.9606,-78.3869 0,-1 96.342,35.893 145.342,59.893 105,51 189.8093,94.5953 440.8093,142.5953 212,40 287.2808,46.7755 347.2808,112.7755 34,37 82.5615,140.3363 73.5615,140.3363 -2,0 -72.3363,-29.2357 -86.3363,-43.2357 z"
         inkscape:connector-curvature="0"
         style="fill:#cacaca;fill-opacity:1;stroke:none"
         transform="matrix(0.1,0,0,-0.1,0.23033009,334.19099)" />
      <path
         inkscape:connector-curvature="0"
         id="path5003"
         d="m 73.875001,84.249999 10.125,-8.625 -7.6875,-10.312498 -15.75,-1.125 -18.5625,12.374998 L 31.6875,103.5625 45.562501,128.6875 92.277436,226.87332 135.375,271.375 182.25,307 l 3.375,-12 -25.5,-37.5 -44.25,-56.625 -26.624999,-39.375 -9.75,-47.625 z"
         style="fill:none;stroke:none;stroke-width:0.75px;stroke-linecap:butt;stroke-linejoin:miter;stroke-opacity:1" />
      <path
         inkscape:connector-curvature="0"
         id="path5005"
         d="m 223.5,276.25 54,-54 L 315,167.5 332.25,104.125 322.46573,80.825821 330,61.375002 372,87.249999 305.625,230.5 l -92.25,81 z"
         style="fill:none;stroke:none;stroke-width:0.75px;stroke-linecap:butt;stroke-linejoin:miter;stroke-opacity:1" />
      <path
         sodipodi:nodetypes="cccccccccccccccccc"
         id="path4676"
         d="m 3104.4159,2477.5841 c -26,-16 -25.5409,-36.4591 -30.5409,-148.4591 -7,-169 -76.5,-258.625 -186.5,-370.625 -146,-150 -379.75,-180.25 -527.75,-49.25 -51,45 -110.625,112.75 -134.625,217.75 l -22.875,121.0625 -33.0313,-30.4375 -21.375,-32.7812 L 2170,2085 c 10,-49 25,-109 34,-132 61.2498,-153.4539 173.3868,-258.8071 342,-263 27,0 27,1 -12,19 -23,10 -44,23 -47,29 -4,5 43,11 120,15 124.3479,5.6506 275.0008,58.812 364,142 107.4384,126.178 167.3933,323.0065 172,473 1,61 2,112 2,112 0,0 -26.5841,6.5841 -40.5841,-2.4159 z"
         inkscape:connector-curvature="0"
         style="fill:#9f9f9f;fill-opacity:1;stroke:none"
         transform="matrix(0.1,0,0,-0.1,0.23033009,334.19099)" />
      <path
         sodipodi:nodetypes="cccccccccccccccccsccc"
         id="path4674"
         d="m 882,2364 c 4,-132 10.65165,-140.7643 34,-234 40.59471,-71.5086 86.6262,-169.4067 131.3258,-212.3483 C 1171.9474,1802.078 1317.9003,1777.9392 1407,1774 c 76,-4 120,-10 117,-16 -4,-6 -25,-19 -48,-30 l -41,-19 60,4 c 225.9667,27.8667 298.4899,180.9917 346,372 l 23,97 -19.25,38.6875 c -13,11 -52.289,18.1999 -54.289,15.1999 -2,-2 -12.6517,-54.2132 -20.6517,-90.2132 -26,-127 -72.461,-212.753 -164.461,-261.753 -55,-29 -75,-34.3371 -151,-37.3371 -96,-5 -173.1576,17.6516 -244.1576,52.6516 C 1145.1907,1932.2357 1038,2007 997,2090 c -50,102 -45.7868,174.0113 -45.7868,289.0113 0,93 -20.88737,108.2695 -45.88737,125.2695 L 877,2512 Z"
         inkscape:connector-curvature="0"
         style="fill:#9f9f9f;fill-opacity:1;stroke:none"
         transform="matrix(0.1,0,0,-0.1,0.23033009,334.19099)" />
      <path
         style="fill:#9f9f9f;fill-opacity:1;stroke:none"
         sodipodi:nodetypes="cccccccsccc"
         id="path4678"
         d="m 1767.375,1810.9375 c 3,-8 34.625,-94.9375 65.625,-190.9375 59,-186 132,-446 142,-508 12,-71 17,-66 45,47 31,121 162.5313,520.375 210.5313,643.375 58,146 -23.0001,20.875 -101.0001,-156.125 -32,-72 -77.5937,-203.4375 -104.5937,-283.4375 -26,-80 -31.6562,-119.25 -34.6562,-111.25 -3,8 5.1562,40.6875 -5.8438,84.6875 -35,136 -162.6875,403.375 -229.6875,544.375 -15,30 10.625,-61.6875 12.625,-69.6875 z"
         inkscape:connector-curvature="0"
         transform="matrix(0.1,0,0,-0.1,0.23033009,334.19099)" />
      <path
         style="fill:#9f9f9f;fill-opacity:1;stroke:none"
         sodipodi:nodetypes="ccccscccccccccccccccccccccccscssc"
         id="path4680"
         d="m 944.83185,1748.2583 c -6,-41 -1.67418,-85.1457 32.32582,-141.1457 C 1074.1577,1448.1126 1200,1308.5 1359,1122.5 1499,958.5 1671.8437,711.8125 1860.8437,425.8125 1911.8437,349.8125 1961,255 1965,255 c 4,0 57,96 100,158 69,99 192.125,233.875 331.125,416.875 44,58 168.875,232.125 304.875,385.125 77,86 209,258 283,369 45,68 61.955,127.1794 47.955,179.1794 -5,18 -38.5166,-10.8874 -68.5166,-67.8874 -44,-82 -92.3596,-148 -165.3596,-208 -51,-43 -137.1295,-106 -145.1295,-97 -2,2 13.6404,26.0395 29.6404,61.0395 15,35 17.4103,76.6685 21.4103,91.6685 l 7,28 -73.5784,-26.399 c -32,-22 -80.0676,-52.3427 -121.0676,-69.3427 -200,-87 -284.2921,-145.9888 -368.2921,-269.9888 C 2107.0619,1144.2695 2105,1102 2085,1018 c -29,-122 -68,-365 -86,-536 -7,-67 -16,-119 -19,-115 -4,5 -13,76 -20,158 -21,258 -85.1406,571.1406 -99,625 -5.8125,23.3906 -9.4844,46.2031 -36.4844,86.2031 -65,98 -138.2573,168.3134 -298.2573,247.3134 -73,36 -114.8769,89.2808 -137.8769,108.2808 -23,18 -114.2688,59.8423 -116.2688,57.8423 -6,-7 7.7418,-155.3588 26.7418,-193.3588 11,-22 27.6066,-27.7418 25.6066,-30.7418 -14,-13 -70.0571,81.9325 -138.0571,149.9325 -52,52 -212.9204,216.1906 -212.9204,246.1906 0,37 -21.65165,-30.4038 -28.65165,-73.4038 z"
         inkscape:connector-curvature="0"
         transform="matrix(0.1,0,0,-0.1,0.23033009,334.19099)" />
      <path
         style="fill:#9f9f9f;fill-opacity:1;stroke:none"
         sodipodi:nodetypes="cccccccccc"
         id="path4668"
         d="m 3247.247,2754.5052 c -20,-46 -104.2245,-127.5502 -161.2245,-156.5502 C 3046.0225,2577.955 2980,2551 2844,2526 c -104,-20 -229.5937,-54.7969 -280.5937,-68.7969 -83.3925,-28.5648 -244.3356,-62.7851 -303.0515,-130.5957 0,-10 83.8978,30.1062 110.8978,42.1062 43,17 231.7474,67.2864 318.7474,76.2864 95,10 285,52 344,77 106,45 199.8986,119.6348 221.8986,190.6348 13,43 7.3484,75.8704 -8.6516,41.8704 z"
         inkscape:connector-curvature="0"
         transform="matrix(0.1,0,0,-0.1,0.23033009,334.19099)" />
      <path
         style="fill:#9f9f9f;fill-opacity:1;stroke:none"
         sodipodi:nodetypes="csccccccccc"
         id="path4666"
         d="m 746.52854,2822.1681 c -2,-25 52.22447,-136.1231 84.22447,-176.1231 C 870.75301,2596.045 1005,2540 1112,2510 c 41,-11 152.0113,-48.5841 248.0113,-64.5841 139,-23 269.8962,-56.5141 316.8962,-79.5141 3,-2 79.5833,-37.609 80.5833,-32.609 -14.8448,21.4951 -109.2297,73.5638 -134.4908,85.7072 -78,39 -218,81 -419,126 -152,34 -224,54 -267,77 -62,33 -117.65165,88.0056 -142.65165,147.0056 -9,19 -47.81981,59.1625 -47.81981,53.1625 z"
         inkscape:connector-curvature="0"
         transform="matrix(0.1,0,0,-0.1,0.23033009,334.19099)" />
      <path
         sodipodi:nodetypes="cccccccccccscccccccccccccccccccccccccccccccccccccscccsccsccccccccccccsscccccsccccsssccsccccccccccsccscccccccccccccccscccccccccccccssccsccccccccccscccccccccscccccccccccccccccccccccccscccccccccccscccccccscccccccsccccccs"
         inkscape:connector-curvature="0"
         style="fill:#004c90;fill-opacity:1"
         id="path49"
         d="m 1760,3140 c -93.9546,-3.9839 -193.4622,-12.6466 -275,-29 -74.4813,-13.7651 -137.5842,-17.9156 -197,-36 -29,-9 -71,-18 -93,-21 -39.1081,-18.702 -76.2271,-19.7755 -113,-34 -28,-11 -64,-22 -80,-25 -16,-2 -54,-16 -84,-29 -52.92091,-11.6155 -68.89839,-29.4831 -115,-41 -16,-5 -24,-1 -32,14 -13.55196,29.7926 -18.18531,49.0736 -26,81 -4,16 -10,32 -15,35 -8,5 -30,-101 -30,-151 0,-24 -7,-32 -43,-49 -96.54772,-56.6201 -229.74184,-117.7014 -308,-166 -59.36605,-33.4636 -112.88939,-69.5697 -142,-99 -13.30097,-19.5805 7.17269,-90.7207 13,-109 17.00701,-60.7942 27.9482,-126.8765 45,-181 21.42091,-66.6595 28.36257,-116.6395 50,-173 20.45261,-59.6137 27.66031,-100.857 50,-151 14,-31 20.78125,-57.9687 27.34375,-76.9375 C 406.06997,1867.0689 409.43017,1851.6028 420,1827 c 10.99006,-32.8564 23.62115,-58.2065 27,-69 6.09375,-15.2031 25,-62 54,-123 22.39231,-47.8364 40.12644,-86.6481 59,-125 27.92498,-54.6304 53.58674,-108.6509 84,-163 15,-21 33,-53 42,-70 31.52239,-56.4237 53.72409,-88.4637 79,-134 11,-21 22,-40 26,-43 36.13174,-40.5484 60.25544,-99.1461 92,-136 18.9489,-25.72731 36.3675,-54.20944 55,-74 20.65881,-22.28138 37.16229,-48.89931 57,-74 28.6956,-28.78457 55.2282,-53.6026 67,-74 271.4349,-283.79186 537.1188,-514.97284 843,-683 53,-30 73,-31 123,-5 455.8896,277.44746 885.5924,660.69823 1272,1196 161.6599,238.226 254.9726,485.1038 353,724 57.3502,136.3134 70.3023,209.5354 113,340 17.1342,74.1832 74.9897,187.7876 30,231 -82.6009,84.7544 -204.2623,140.4188 -280,195 -48.3829,26.4954 -77.6742,39.1333 -123,64 l -51,28 -9,72 c -4,39 -6.5312,114.2813 -5.5312,127.2813 -5.9708,18.0853 -48.2633,-71.5987 -53.9688,-88.9375 C 3268.5,2932.0312 3266,2925 3259,2906 l -12,-33 -94,44 c -107.8743,46.7727 -184.8753,65.9225 -292,102 -206.8948,51.2676 -375.5527,121.9901 -584.5338,115.7541 -58.9662,3.3709 -35.3093,4.5492 -66.4662,5.2459 -11.997,0.2683 -331,11 -450,0 z m 490,-166 c 156,-20 260,-45 398,-100 146,-56 342,-172 342,-201 0,-11 -126,-54 -255,-88 -399,-104 -525,-172 -594,-318 -30,-64 -48,-127 -36,-127 4,0 28,18 53,41 l 47,41 7,-39 c 43,-215 116,-313 267,-357 69,-20 139,-20 232,-1 88,19 158,58 221,122 100,103 146,218 155,389 6,115 6,115 36,130 25,13 31,14 38,2 37,-57 49,-243 24,-389 -17,-102 -51,-235 -76,-294 -12,-29 -13,-28 -19,40 -7,71 -38,185 -51,185 -8,0 -19,-37 -19,-66 0,-36 -85,-196 -149,-281 -90,-119 -95,-121 -86,-45 7,61 -7,156 -25,167 -4,3 -19,-14 -33,-38 -35,-59 -107,-123 -202,-181 -162,-99 -243,-157 -294,-211 -51,-54 -93,-129 -106,-190 -5,-24 1,-18 32,30 77,117 159,177 384,278 41,19 95,49 120,66 24,18 45,28 47,22 2,-6 -12,-49 -31,-96 -19,-47 -32,-85 -29,-85 21,0 135,75 189,124 68,62 155,183 167,232 10,39 26,12 26,-43 0,-33 -10,-56 -53,-120 -111,-164 -220,-304 -336,-428 -154,-165 -335,-395 -551,-700 -30,-43 -68,-95 -83,-117 l -28,-40 -114,171 c -217,326 -349,504 -505,685 -122,142 -211,260 -315,420 l -77,119 6,55 c 3,31 8,57 10,59 2,2 11,-17 20,-43 38,-113 164,-257 280,-323 32,-18 60,-30 62,-28 2,2 -7,28 -20,58 -14,30 -28,74 -32,99 l -7,45 41,-37 c 23,-21 105,-69 184,-109 164,-82 231,-134 296,-231 25,-37 47,-66 50,-64 2,3 -2,22 -8,43 -40,121 -111,198 -300,322 -158,103 -236.6742,160.7305 -276.6742,227.7305 -17,31 -28.3258,51.2695 -33.3258,42.2695 -17,-30 -31,-132 -25,-172 l 7,-42 -31,29 c -80,76 -190,279 -205,379 -4,26 -11,47 -15,47 -12,0 -53,-128 -60,-188 l -7,-57 -23,75 c -43,140 -63,282 -58,425 3,89 10,145 22,178 l 17,48 32,-20 31,-20 8,-126 c 8,-149 39,-243 111,-342 95,-130 233,-191 410,-180 150,10 236,68 301,202 29,60 62.3636,161.4521 56.3636,186.4521 C 1824.2623,2213.2783 1829,2216 1867,2178 c 23,-23 45,-39 48,-36 10,10 -35,134 -65,181 -71,106 -200,179 -438,247 -176,50 -372,119 -372,131 0,13 86,74 160,113 143,75 345,137 525,161 131,17 381,16 525,-1 z M 950,2672 c 52,-26 187,-73 350,-123 279,-86 376,-126 425,-179 l 30,-33 -45,26 c -68,38 -125,54 -313,87 -398,70 -545,138 -596,276 -12,30 -20.21685,58.4864 -22.99219,64.5234 C 773.71381,2799.864 799,2778 823,2756 c 23,-23 80,-60 127,-84 z m 2294,44 c -19,-55 -82,-128 -139,-161 -66,-39 -168,-70 -315,-94 -313,-51 -405,-71 -465,-102 l -59,-30 24,26 c 55,59 163,102 425,170 286,74 429,131 496,198 19,19 37,35 41,36 4,0 0,-19 -8,-43 z m -2473,-104 35,-57 -19,-43 c -82,-189 -55,-517 63,-777 94,-206 184,-351 321,-514 69,-82 195,-247 281,-366 91,-127 318,-462 325,-482 9,-22 -100,53 -216,150 -118,98 -298,281 -396,402 -123,152 -180,236 -338,500 -23,39 -147,292 -180,370 -71,163 -160,429 -207,615 -20,81 -21,85 -3,98 44,33 278,162 291,162 4,-1 23,-27 43,-58 z m 2624,-34 c 91,-52 185,-115 197,-132 7,-11 -8,-64 -74,-261 C 3285,1493 2933,957 2445,550 2357,477 2190,357 2184,362 c -13,13 478,667 591,788 135,144 294,373 362,520 38,82 83,192 96,235 20,61 47,255 47,331 0,58 -23,183 -45,248 -13,38 -13,40 23,92 20,29 39,53 42,54 2,0 45,-23 95,-52 z M 1063,2441 c 23,-9 24,-15 29,-113 4,-79 11,-114 27,-146 41,-81 129,-145 211,-155 19,-3 47,-8 61,-12 33,-8 105,10 143,38 47,34 84,102 98,183 6,41 16,74 20,74 5,0 27,-9 49,-21 35,-18 40,-23 35,-47 -3,-15 -8,-47 -11,-72 -14,-109 -93,-213 -190,-250 -121,-46 -236,-30 -349,48 -98,67 -165,214 -173,379 -6,112 -4,114 50,94 z m 1957,-45 c 0,-55 -23,-183 -42,-235 -67,-181 -198,-283 -368,-285 -67,-1 -84,3 -143,32 -37,19 -79,49 -96,69 -40,49 -80,150 -88,223 l -6,58 41,21 c 55,28 62,27 62,-13 0,-55 38,-164 71,-201 42,-48 110,-68 199,-61 41,4 88,15 111,26 49,26 116,85 133,119 18,35 36,123 39,196 2,54 4,60 27,66 48,13 60,10 60,-15 z"
         transform="matrix(0.1,0,0,-0.1,0,334)" />
      <path
         sodipodi:nodetypes="ccccsccccsccsscccccccccs"
         inkscape:connector-curvature="0"
         style="fill:#004c90;fill-opacity:1"
         id="path55"
         d="m 1933,2006 c -65,-57 -128,-96 -175,-110 -15,-4 -11,-17 29,-103 86,-186 142,-334 178,-478 10,-38 21,-75 24,-82 3,-7 24,45 45,115 39,125 125,333 188,455 18,34 34,65 36,69 2,3 -25,21 -59,39 -35,19 -91,62 -125,96 -35,35 -64,63 -66,62 -2,0 -35,-29 -75,-63 z m 170.0625,-95 c 27.4611,-18.8119 71.625,-41.6875 71.625,-46.6875 0,-5 -19.6875,-35.3125 -37.6875,-72.3125 -19,-37 -58,-136 -87,-221 -39,-112 -56,-149 -61,-135 -4,10 -22,69 -40,129 -31,106 -92,257.3125 -120,311.3125 54.5625,21.25 51.5184,19.6365 81.5184,42.699 34,23 43.5492,28.4495 57.5492,43.4495 l 35.9324,32.6291 41.2808,-40.6291 c 18,-19 26.0317,-21.711 57.7817,-43.461 z"
         transform="matrix(0.1,0,0,-0.1,0,334)" />
      <path
         style="fill:#004c90;fill-opacity:1"
         id="path51"
         d="m 1525,2693 c 6,-6 56,-39 112,-76 115,-74 238,-186 286,-259 34,-54 46,-50 26,9 -48,148 -204,296 -334,317 -22,4 -53,9 -70,12 -19,4 -26,3 -20,-3 z"
         transform="matrix(0.1,0,0,-0.1,0,334)"
         inkscape:connector-curvature="0" />
      <path
         sodipodi:nodetypes="scccccccss"
         inkscape:connector-curvature="0"
         style="fill:#004c90;fill-opacity:1"
         id="path53"
         d="m 2429,2676 c -6.8047,-2 -16.5937,-3.3047 -34,-9 -53,-8 -136,-57 -197,-115 -70,-66 -90,-97 -123,-188 -24,-66 -24,-68 -4,-39 12,17 61,68 108,115 83,82 174,150 284,211 l 52,29 h -41 c -22,0 -42.2864,-3.2024 -45,-4 z"
         transform="matrix(0.1,0,0,-0.1,0,334)" />
    </g>
  </g>
</svg>
